<svg width="25" height="43" viewBox="0 0 25 43" fill="none" xmlns="http://www.w3.org/2000/svg">
<path d="M23.7867 34.526C23.582 34.1153 23.3223 33.7521 23.0381 33.4137C22.6107 32.9052 22.1291 32.446 21.6517 31.9427C21.1751 31.4386 20.7021 30.8933 20.279 30.2199C18.9996 28.1847 18.3104 26.4541 17.9401 25.2406C17.7557 24.6337 17.6501 24.1564 17.5922 23.8353C17.5879 23.8122 17.585 23.7919 17.5815 23.771H19.4285C19.6094 23.7718 19.7894 23.7204 19.9356 23.6329C20.0469 23.5678 20.1388 23.4852 20.2146 23.3949C20.3275 23.2597 20.4027 23.1078 20.4519 22.9516C20.501 22.7954 20.5242 22.6319 20.5242 22.4648C20.5242 22.2074 20.4693 21.9412 20.3463 21.6844C20.224 21.4284 20.0324 21.1854 19.772 20.9945C19.3815 20.7073 18.9504 20.3855 18.6424 20.0557C18.4876 19.8915 18.3661 19.7266 18.288 19.5754C18.2503 19.5002 18.2229 19.4294 18.2041 19.3614C18.4167 19.1249 18.7595 18.7019 19.103 18.1023C19.6432 17.1592 20.1835 15.7706 20.1835 14.0088C20.1835 13.8787 20.1813 13.7463 20.1748 13.6118C20.1126 12.2399 19.7539 11.0018 19.2064 9.92627C18.3834 8.31277 17.1445 7.063 15.8319 6.21039C15.1752 5.78442 14.4997 5.45679 13.8409 5.23398C13.1813 5.0105 12.5397 4.89116 11.9417 4.89049C11.7761 4.89049 11.614 4.89989 11.455 4.92022L10.8301 4.99757L10.9588 5.61452C10.9588 5.61452 11.1657 6.6104 11.4492 7.86085C11.7326 9.11137 12.0899 10.6134 12.4017 11.6556C12.508 12.0136 12.5499 12.3102 12.5499 12.5452C12.5499 12.7505 12.5181 12.9081 12.4747 13.0275C12.4074 13.2083 12.3177 13.3074 12.2144 13.3775C12.1102 13.4462 11.9829 13.4831 11.8455 13.4831C11.6908 13.4839 11.5302 13.4339 11.4087 13.3493C11.2858 13.2632 11.2019 13.1526 11.1592 12.9999C10.9097 12.0916 10.5763 10.81 10.3057 9.75696C10.1705 9.23046 10.0519 8.76183 9.96586 8.42405C9.92311 8.25557 9.88851 8.1196 9.86524 8.0263C9.84139 7.93156 9.82913 7.88092 9.82913 7.88092L9.67292 7.26044L9.07125 7.47603C8.39426 7.71681 7.7983 8.06762 7.28843 8.49359C6.52325 9.13363 5.95123 9.94005 5.55995 10.8072C5.16867 11.6758 4.95535 12.6059 4.90974 13.512L4.9105 13.5106C4.90395 13.6256 4.90109 13.7391 4.90109 13.8519C4.90244 15.1255 5.2482 16.368 5.76605 17.3979C6.0264 17.9129 6.33093 18.3764 6.6672 18.7634C6.71851 18.8227 6.77134 18.8791 6.82341 18.9348V19.1575C6.82341 19.2891 6.78864 19.4222 6.71129 19.5755C6.5964 19.8026 6.37653 20.0579 6.10593 20.3016C5.8355 20.5453 5.5209 20.7789 5.22645 20.9945C4.9661 21.1854 4.7752 21.4284 4.65368 21.6844C4.53072 21.9412 4.47428 22.208 4.47428 22.4648C4.47428 22.6138 4.4931 22.7592 4.53215 22.8995C4.59077 23.1092 4.69273 23.3132 4.86624 23.4824C4.95308 23.5663 5.05865 23.6401 5.17875 23.6915C5.30027 23.7435 5.43616 23.7718 5.5707 23.771H7.41928C7.25946 24.6887 6.68375 27.0964 4.72019 30.22C4.34478 30.8188 3.92897 31.3157 3.50662 31.7728C3.18916 32.1156 2.86724 32.4353 2.55843 32.7564C2.09484 33.2403 1.65367 33.7306 1.31958 34.3244C1.15312 34.6216 1.01581 34.9435 0.921073 35.2957C0.82701 35.6479 0.775696 36.0284 0.776452 36.4398C0.776452 36.5352 0.778635 36.6351 0.784346 36.7364C0.807442 37.1515 0.930479 37.513 1.10617 37.7973C1.23853 38.0114 1.39684 38.1835 1.556 38.3188C1.65585 38.4019 1.75487 38.47 1.85036 38.5285L1.02799 39.9136V43H23.9716V39.9133L23.1507 38.5298C23.2968 38.4385 23.453 38.3229 23.602 38.171C23.7575 38.0112 23.9043 37.8116 24.0143 37.5692C24.1256 37.3284 24.1979 37.0464 24.2153 36.7353C24.221 36.6341 24.2232 36.535 24.2232 36.4396C24.2241 35.7085 24.0593 35.0742 23.7867 34.526ZM6.50016 16.1814C6.22897 15.4568 6.06193 14.6475 6.0626 13.852C6.0626 13.7565 6.06403 13.6632 6.06982 13.5714V13.5706C6.11971 12.5516 6.42852 11.4806 6.99415 10.583C7.27768 10.1331 7.62336 9.72673 8.0327 9.38466C8.28659 9.17344 8.56793 8.98976 8.87162 8.83137C9.14071 9.89167 9.67367 11.9782 10.0389 13.3082C10.1553 13.7356 10.4222 14.0805 10.7477 14.304C11.0732 14.529 11.4565 14.644 11.8455 14.6447C12.0755 14.6447 12.3083 14.6035 12.5318 14.5145C12.8652 14.3828 13.1748 14.1384 13.386 13.7963C13.5985 13.4542 13.7114 13.0275 13.7106 12.5452C13.7106 12.1749 13.6476 11.7698 13.5147 11.3236C13.2196 10.3365 12.8623 8.84153 12.5817 7.60327C12.445 7.00379 12.3278 6.46494 12.2418 6.06644C12.7719 6.11128 13.3946 6.27186 14.0376 6.55464C15.1926 7.06014 16.4076 7.94542 17.3405 9.14816C18.2742 10.3516 18.9316 11.8624 19.0148 13.6647C19.0198 13.7811 19.0227 13.8954 19.0227 14.0088C19.0227 15.5299 18.5584 16.7145 18.0955 17.5252C17.8641 17.9302 17.6326 18.239 17.4627 18.4429C17.4201 18.4943 17.381 18.5385 17.3477 18.5767H8.19605C7.99214 18.4523 7.7658 18.2578 7.54375 18.0018C7.14818 17.5476 6.77134 16.9068 6.50016 16.1814ZM5.6583 22.6102C5.64671 22.5762 5.63587 22.5263 5.63587 22.4648C5.63587 22.3788 5.65603 22.2789 5.70096 22.1857C5.74581 22.0932 5.81232 22.0063 5.91571 21.9297C6.30699 21.6397 6.7915 21.2882 7.20445 20.8499C7.41063 20.6293 7.6001 20.3856 7.74472 20.1058C7.80401 19.99 7.85474 19.8663 7.89446 19.7377H17.1055C17.1453 19.8663 17.1959 19.99 17.2551 20.1058C17.4721 20.5259 17.7874 20.8652 18.1157 21.1631C18.4441 21.4597 18.7905 21.7136 19.0835 21.9298C19.1868 22.0057 19.2541 22.0933 19.299 22.1858C19.3438 22.279 19.364 22.3789 19.3633 22.4649C19.364 22.5148 19.3567 22.5582 19.3481 22.5915C19.3459 22.5987 19.3437 22.6045 19.3409 22.6103H5.6583V22.6102ZM22.8103 41.8392H2.18899V40.2322L3.0395 38.8003H21.9605L22.8103 40.2322V41.8392H22.8103ZM23.0555 36.6697C23.0417 36.9032 22.9818 37.0609 22.9036 37.1896C22.845 37.2859 22.7726 37.3653 22.6931 37.4319C22.5745 37.5332 22.4392 37.6032 22.338 37.6446C22.2875 37.6656 22.2455 37.6786 22.2194 37.6865L22.1941 37.6937L22.1455 37.7039V37.6394H2.85431V37.7039L2.80803 37.6937C2.80081 37.6922 2.74152 37.6777 2.65837 37.643C2.52744 37.5896 2.34595 37.4883 2.2099 37.3394C2.1412 37.2641 2.08123 37.1774 2.0342 37.071C1.98793 36.9647 1.95391 36.8367 1.94451 36.6697V36.6682C1.94014 36.5907 1.93728 36.5141 1.93728 36.4396C1.9388 35.877 2.05444 35.4459 2.25332 35.0424C2.40298 34.74 2.60555 34.4537 2.85145 34.1608C3.21964 33.7196 3.68895 33.2698 4.19084 32.7411C4.69206 32.2117 5.22359 31.6028 5.7039 30.8383C7.90395 27.3401 8.46228 24.657 8.59531 23.771H16.4047C16.5377 24.657 17.096 27.3401 19.2961 30.8383C19.7228 31.5174 20.1907 32.0751 20.6413 32.5617C20.9791 32.927 21.3066 33.2524 21.6032 33.5612C22.0487 34.0241 22.4175 34.4464 22.6671 34.8927C22.7922 35.1155 22.8891 35.3454 22.9563 35.5964C23.0236 35.8481 23.062 36.1229 23.062 36.4396C23.062 36.5141 23.0598 36.5915 23.0555 36.6697Z" fill="black"/>
<path d="M11.9554 4.08475C12.5181 4.0855 13.0331 3.85555 13.4005 3.48661C13.7693 3.11851 13.9993 2.60427 13.9986 2.04166C13.9986 1.48039 13.7693 0.965484 13.4005 0.598053C13.0331 0.230033 12.5181 0 11.9554 0C11.3943 0 10.8793 0.230033 10.5119 0.598137C10.1437 0.965484 9.91379 1.48048 9.91379 2.04174C9.91379 2.60436 10.1438 3.11859 10.5119 3.4867C10.8793 3.85555 11.3942 4.0855 11.9554 4.08475ZM11.3334 1.41967C11.4946 1.25909 11.711 1.16226 11.9554 1.16226C12.2013 1.16226 12.4174 1.25909 12.5788 1.41967C12.7394 1.58092 12.8369 1.79718 12.8369 2.04166C12.8362 2.28757 12.7394 2.50458 12.5788 2.66508C12.4182 2.82565 12.2013 2.92324 11.9554 2.92324C11.7109 2.92324 11.4946 2.82565 11.3334 2.66508C11.1728 2.5045 11.076 2.28748 11.0752 2.04166C11.076 1.79727 11.1729 1.58101 11.3334 1.41967Z" fill="black"/>
</svg>
