<svg width="23" height="43" viewBox="0 0 23 43" fill="none" xmlns="http://www.w3.org/2000/svg">
<path d="M22.169 34.9897C21.9761 34.6006 21.7302 34.2576 21.462 33.9378C21.0568 33.4571 20.6014 33.0227 20.1515 32.5469C19.7001 32.0705 19.2531 31.5557 18.8536 30.9186C17.6563 29.0157 17.0025 27.0975 16.6504 25.6585C16.4744 24.9389 16.3738 24.3403 16.3178 23.9246C16.2963 23.764 16.2822 23.641 16.2718 23.5391H18.0489C18.2012 23.5404 18.3521 23.5062 18.4862 23.4426C18.6874 23.3477 18.8425 23.1891 18.9403 23.0123C19.0394 22.8349 19.0856 22.6379 19.0856 22.4381C19.0856 22.2069 19.0213 21.9694 18.8942 21.7535C18.7657 21.5377 18.5743 21.3462 18.3298 21.2017C17.9764 20.9936 17.6438 20.7651 17.4287 20.5387C17.3197 20.4256 17.2401 20.3159 17.1912 20.2139C17.1423 20.1119 17.12 20.0211 17.12 19.9177V19.3686H17.1106C17.2842 18.8734 17.5395 18.1364 17.82 17.294C18.0714 16.5381 18.3412 15.7047 18.5842 14.9028C18.8287 14.1002 19.0467 13.3303 19.1934 12.694C19.2241 12.5634 19.2395 12.4307 19.2395 12.3001C19.2395 12.0178 19.1725 11.7412 19.0551 11.487C18.8777 11.1042 18.5828 10.7675 18.1958 10.5243C17.8102 10.2813 17.3296 10.1352 16.7973 10.1352C16.1533 10.1352 14.8288 10.1352 13.6665 10.1352C13.5652 10.1352 13.4678 10.1352 13.3696 10.1352C13.3479 9.7196 13.3186 9.1307 13.2906 8.51744C13.2711 8.07451 13.2529 7.62183 13.2389 7.21812C13.2337 7.0651 13.2295 6.92266 13.226 6.78636C13.3577 6.79484 13.4911 6.80315 13.6315 6.81508C14.168 6.86052 14.7422 6.92964 15.1809 6.98691C15.3988 7.01564 15.5846 7.04142 15.7145 7.05956C15.7788 7.06938 15.8305 7.07703 15.8653 7.08257C15.9003 7.08677 15.9171 7.09021 15.9171 7.09021L16.5486 7.18596V2.91165L15.9171 3.00798C15.9171 3.00798 15.91 3.00941 15.8946 3.01151C15.7759 3.02965 15.2255 3.1107 14.5744 3.18687C14.2489 3.22466 13.8969 3.26095 13.5643 3.28816C13.4519 3.29723 13.3461 3.30353 13.2388 3.31058C13.2469 3.18276 13.2553 3.05418 13.2668 2.91862C13.3115 2.38146 13.3799 1.80726 13.4373 1.36995C13.4666 1.15059 13.4931 0.965484 13.5113 0.834805C13.5211 0.770557 13.5281 0.718822 13.5337 0.683969C13.5379 0.649031 13.5407 0.631646 13.5407 0.631646L13.6369 0H9.36318L9.45951 0.631562C9.45951 0.631562 9.46094 0.639205 9.46228 0.65533C9.48042 0.772656 9.56013 1.32376 9.63697 1.97489C9.67468 2.30109 9.71239 2.65248 9.73893 2.98497C9.748 3.09818 9.75421 3.20367 9.76093 3.3105C9.63311 3.3021 9.50419 3.29437 9.36873 3.28253C8.83223 3.23785 8.25795 3.16932 7.82073 3.1107C7.60136 3.08273 7.41559 3.05619 7.28566 3.03805C7.21999 3.02822 7.16976 3.02134 7.13474 3.01638C7.0998 3.01151 7.08166 3.00798 7.08166 3.00798L6.45018 2.91224V7.18596L7.08166 7.09021C7.08166 7.09021 7.09006 7.08887 7.10535 7.08677C7.22276 7.06863 7.77462 6.98758 8.42558 6.91208C8.75111 6.87295 9.10182 6.83666 9.43566 6.80945C9.55307 6.79963 9.66343 6.79333 9.77412 6.78636C9.76916 6.97364 9.76261 7.17688 9.75413 7.39415C9.72902 8.10802 9.68988 8.94072 9.6578 9.5932C9.64797 9.79787 9.6389 9.97466 9.63059 10.1352C8.40358 10.1352 6.90202 10.1352 6.20134 10.1352C5.49167 10.1346 4.87691 10.3965 4.44808 10.7975C4.23426 10.9979 4.06243 11.2312 3.94518 11.4869C3.82634 11.7412 3.76067 12.0178 3.76067 12.3C3.76067 12.4306 3.77604 12.5633 3.80678 12.6954L3.80535 12.694C3.9535 13.3304 4.17144 14.1002 4.41449 14.9028C4.92898 16.5954 5.55945 18.4277 5.88908 19.3686H5.88001V19.9177C5.88001 20.0211 5.85768 20.1119 5.8088 20.2139C5.73615 20.3661 5.59086 20.538 5.38971 20.7084C5.18714 20.8789 4.93427 21.0451 4.67014 21.2017C4.42566 21.3462 4.23291 21.5376 4.10576 21.7535C3.97727 21.9694 3.91293 22.2069 3.91293 22.4381C3.91436 22.7036 3.99675 22.9675 4.17564 23.1814C4.26508 23.2875 4.37963 23.3797 4.51376 23.4426C4.64788 23.5061 4.7988 23.5403 4.94964 23.539H6.7275C6.68979 23.9106 6.59061 24.6796 6.34126 25.6926C5.98634 27.1275 5.33395 29.031 4.14641 30.9185C3.79015 31.4843 3.39895 31.9544 2.99801 32.3868C2.69911 32.7103 2.3945 33.0127 2.10248 33.3166C1.66375 33.7735 1.24752 34.2366 0.93174 34.7983C0.773849 35.0791 0.643841 35.3837 0.554482 35.7162C0.465038 36.0494 0.417587 36.4092 0.417587 36.7983C0.417587 36.8891 0.420359 36.9827 0.425986 37.0791V37.0777C0.446982 37.471 0.56288 37.8119 0.729253 38.0815C0.854894 38.284 1.00439 38.4469 1.15388 38.5747C1.24929 38.6543 1.34251 38.7144 1.43405 38.7703L0.655179 40.0821V43H22.3438V40.0821L21.5677 38.7737C21.7067 38.6878 21.8534 38.5789 21.9945 38.4349C22.1426 38.284 22.2809 38.0947 22.3843 37.8664C22.4891 37.6386 22.5589 37.3718 22.5743 37.0777C22.5798 36.9819 22.5827 36.8891 22.5827 36.7983C22.5839 36.1074 22.4275 35.5073 22.169 34.9897ZM10.3327 5.66811C10.0169 5.66811 9.65234 5.68969 9.27651 5.72186C8.65444 5.77418 8.00936 5.85455 7.54828 5.91603V4.18293C7.73028 4.20737 7.93839 4.2339 8.16573 4.2612C8.51502 4.30311 8.90068 4.34502 9.27651 4.37718C9.65234 4.40859 10.0169 4.43026 10.3327 4.43026H10.8818V3.88193C10.8804 3.56614 10.8594 3.20148 10.8273 2.82565C10.7749 2.204 10.6949 1.5585 10.6331 1.09742H12.3662C12.3418 1.279 12.3145 1.4872 12.2873 1.71496C12.2454 2.0635 12.2035 2.44982 12.1727 2.82565C12.1406 3.20148 12.1182 3.56614 12.1182 3.88193V4.43026H12.6673C12.9816 4.43026 13.3462 4.40859 13.7235 4.37651C14.3456 4.3241 14.9906 4.24381 15.4517 4.18234V5.91544C15.2701 5.89092 15.0615 5.86438 14.8342 5.83649C14.4849 5.79526 14.0993 5.75335 13.7235 5.72194C13.3462 5.68977 12.9816 5.66819 12.6673 5.66819H12.1182V6.2172C12.1182 6.51971 12.1308 6.95071 12.1475 7.43413C12.1814 8.35418 12.2352 9.45429 12.2701 10.1354C12.2297 10.1354 12.1842 10.1354 12.1462 10.1354C11.7508 10.1354 11.5008 10.1354 11.4993 10.1354C11.4993 10.1354 11.1926 10.1354 10.7299 10.1354C10.7463 9.81055 10.7672 9.39491 10.7882 8.94299C10.8106 8.44765 10.8343 7.91603 10.851 7.43413C10.8692 6.95071 10.8804 6.51971 10.8804 6.2172V5.66811H10.3327ZM6.12743 16.6626C5.88993 15.9445 5.64267 15.1712 5.42054 14.4363C5.19983 13.7021 5.00557 13.005 4.87565 12.4462V12.4448C4.86448 12.3994 4.85885 12.3519 4.85885 12.3003C4.85885 12.1913 4.88404 12.0704 4.94124 11.9488C5.02505 11.7659 5.1774 11.5863 5.38829 11.4542C5.59934 11.3215 5.86893 11.2342 6.20142 11.2335C7.491 11.2335 11.4993 11.2335 11.4993 11.2335C11.4993 11.2335 15.509 11.2335 16.7971 11.2335C17.2413 11.2349 17.5739 11.3886 17.803 11.601C17.9162 11.7065 18.0028 11.8274 18.0587 11.9489C18.1145 12.0705 18.1411 12.1913 18.1411 12.3004C18.1411 12.352 18.1354 12.4002 18.1243 12.4463C17.9861 13.0422 17.7737 13.7952 17.5348 14.5838C17.1757 15.7671 16.7538 17.0323 16.4227 17.9997C16.2578 18.4838 16.1139 18.8931 16.0119 19.1817C15.9875 19.2515 15.9658 19.3136 15.9462 19.3689H7.05311C6.88749 18.9021 6.52426 17.8626 6.12743 16.6626ZM5.04891 22.3146C5.07964 22.2649 5.13138 22.2048 5.23048 22.1454C5.61748 21.9142 6.02405 21.6487 6.36217 21.2995C6.53115 21.1249 6.68349 20.9258 6.79519 20.6946C6.83013 20.6234 6.8518 20.5438 6.87767 20.4668H16.1217C16.1472 20.5438 16.1688 20.6234 16.2035 20.6946C16.3739 21.0418 16.6281 21.3142 16.902 21.5469C17.1773 21.7795 17.479 21.973 17.7696 22.1455C17.8688 22.2049 17.9205 22.2643 17.9498 22.3146C17.9806 22.3649 17.9875 22.4075 17.9875 22.4383L17.9872 22.4418H5.01162L5.01128 22.4383C5.0112 22.4074 5.01959 22.3649 5.04891 22.3146ZM1.81324 35.4774C1.95576 35.1916 2.14573 34.9214 2.37904 34.644C2.72691 34.2269 3.17118 33.8014 3.64477 33.3021C4.11844 32.8019 4.62143 32.2263 5.07545 31.5034C6.35243 29.4706 7.04253 27.4427 7.41559 25.9198C7.69777 24.7658 7.79839 23.9031 7.83131 23.5392H15.1689C15.2017 23.9032 15.3022 24.7659 15.5845 25.9198C15.9576 27.4427 16.6463 29.4706 17.9246 31.5034C18.327 32.1453 18.7699 32.6719 19.196 33.1323C19.5159 33.4774 19.8247 33.7855 20.1055 34.0775C20.5274 34.5148 20.8753 34.9143 21.1114 35.3363C21.2288 35.5466 21.321 35.7638 21.3839 36.0013C21.4481 36.2388 21.4844 36.4988 21.4844 36.7984C21.4844 36.869 21.483 36.9416 21.4789 37.0164C21.4648 37.2356 21.409 37.3859 21.3349 37.5074C21.2791 37.5983 21.2106 37.673 21.1351 37.7365C21.0234 37.8315 20.8962 37.8986 20.7998 37.9378C20.7523 37.9573 20.7118 37.9698 20.6881 37.9769L20.665 37.9831L20.6615 37.9839L20.6182 37.9929V37.9329H2.38181V37.9929L2.33991 37.9839C2.33705 37.9839 2.27843 37.9699 2.19596 37.9357C2.07166 37.8854 1.90117 37.7897 1.77268 37.6486C1.707 37.5774 1.65115 37.4956 1.60647 37.395C1.56313 37.2944 1.53105 37.1735 1.52131 37.0164V37.0143C1.51711 36.9409 1.51568 36.8689 1.51568 36.7984C1.51703 36.2666 1.62604 35.8587 1.81324 35.4774ZM21.247 41.9019H1.75319V40.384L2.55684 39.0301H20.4432L21.247 40.384V41.9019Z" fill="black"/>
</svg>
