<svg width="29" height="43" viewBox="0 0 29 43" fill="none" xmlns="http://www.w3.org/2000/svg">
<path d="M14.4998 15.2124C16.5978 15.2124 18.5034 14.3597 19.8778 12.9846C21.2537 11.6103 22.1055 9.70465 22.1055 7.60672C22.1055 5.50795 21.2537 3.60234 19.8778 2.22794C18.5034 0.852693 16.5978 0 14.4998 0C12.4018 0 10.4954 0.852693 9.12181 2.22785C7.74581 3.60217 6.8932 5.50778 6.89395 7.60663C6.89328 9.70465 7.74581 11.6102 9.12181 12.9845C10.4954 14.3597 12.4018 15.2124 14.4998 15.2124ZM10.1368 3.2428C11.2554 2.12497 12.7937 1.43613 14.4998 1.43546C16.2059 1.43613 17.7434 2.12497 18.8628 3.2428C19.9806 4.36148 20.6695 5.90057 20.6702 7.60663C20.6694 9.31278 19.9806 10.8501 18.8628 11.9696C17.7435 13.0875 16.206 13.7763 14.4998 13.777C12.7937 13.7762 11.2554 13.0875 10.1368 11.9696C9.01892 10.8501 8.32941 9.31278 8.32857 7.60663C8.32941 5.90057 9.01892 4.36148 10.1368 3.2428Z" fill="black"/>
<path d="M28.1965 36.9918C28.3675 36.7884 28.5226 36.5357 28.6319 36.2366C28.7411 35.9373 28.8045 35.5945 28.8045 35.2161C28.8045 34.8067 28.7094 34.4165 28.5559 34.0642C28.2819 33.445 27.8373 32.9344 27.3338 32.4863C26.5754 31.8173 25.6649 31.2791 24.8559 30.8293C24.4513 30.6053 24.0729 30.405 23.7578 30.2308C23.6002 30.1437 23.4593 30.063 23.3406 29.9909C23.2219 29.9189 23.126 29.8547 23.0635 29.8071C21.9257 28.9443 21.0802 27.9744 20.5236 27.0101C19.9679 26.0459 19.7034 25.0895 19.7034 24.2519C19.7034 23.7587 19.7937 23.3067 19.9662 22.9029C20.096 22.6005 20.2718 22.3249 20.4998 22.0764C20.8403 21.7051 21.2979 21.3907 21.9035 21.1643C22.5076 20.9379 23.2597 20.8025 24.167 20.8025H24.8843V16.111H4.1144V20.8025H4.83247C5.63838 20.8025 6.32243 20.9093 6.88849 21.0923C7.73875 21.3678 8.32227 21.8033 8.71019 22.3345C9.09577 22.8664 9.29447 23.5108 9.29523 24.2519C9.29598 25.0895 9.0316 26.0459 8.47495 27.0101C7.91839 27.9744 7.07283 28.9443 5.93602 29.8071C5.83944 29.8807 5.66845 29.9886 5.45471 30.1103C5.07863 30.3258 4.57195 30.5894 4.02722 30.8941C3.20938 31.3525 2.30135 31.8995 1.55792 32.5835C1.18746 32.9263 0.854883 33.3056 0.605534 33.7426C0.35694 34.1764 0.194683 34.6776 0.195438 35.2159C0.194683 35.7202 0.307053 36.1628 0.490727 36.5199C0.62695 36.7883 0.799537 37.0076 0.977668 37.1809C1.08298 37.283 1.18897 37.3654 1.29194 37.439L0.255655 39.1847V43H28.7426V42.2819V39.1848L27.7075 37.4407C27.8699 37.3259 28.0381 37.1803 28.1965 36.9918ZM27.3078 41.5647H1.69103V39.5791L2.63317 37.9918H26.3657L27.3079 39.5791L27.3078 41.5647ZM27.2294 35.8692C27.1709 35.9848 27.0988 36.0751 27.0205 36.1527C26.9033 36.2666 26.7679 36.3458 26.6658 36.3925C26.6152 36.4155 26.5739 36.4305 26.5486 36.4384L26.5265 36.4455L26.0467 36.5564H2.95214L2.47318 36.4455C2.46688 36.4439 2.40356 36.4257 2.31646 36.3846C2.18343 36.3221 2.00765 36.2088 1.87622 36.037C1.8097 35.9508 1.75116 35.8486 1.70682 35.7179C1.66248 35.5873 1.6309 35.4258 1.6309 35.216C1.6309 35.0236 1.67197 34.8376 1.75914 34.6397C1.90796 34.296 2.2088 33.9216 2.61738 33.5606C3.22853 33.0175 4.06141 32.514 4.83885 32.0849C5.22837 31.8696 5.60361 31.6708 5.93694 31.4863C6.10391 31.3938 6.25995 31.3051 6.40474 31.2172C6.54886 31.1293 6.68029 31.043 6.80375 30.9503C8.07997 29.9821 9.05537 28.8753 9.71876 27.7274C10.379 26.5802 10.7298 25.3887 10.7306 24.2518C10.7306 23.5837 10.6078 22.9345 10.3522 22.3376C9.97055 21.4429 9.28498 20.6774 8.34604 20.162C7.5733 19.736 6.63595 19.4756 5.54969 19.3956V17.5462H23.4499V19.3932C22.8023 19.4407 22.2086 19.5523 21.6702 19.7257C20.5744 20.0773 19.706 20.6924 19.1273 21.4903C18.5477 22.2869 18.2674 23.2503 18.2691 24.2518C18.2691 25.3886 18.619 26.5802 19.2809 27.7274C19.9427 28.8753 20.9197 29.9821 22.1959 30.9503C22.3828 31.0913 22.5926 31.2187 22.8308 31.3565C23.2481 31.5948 23.7493 31.8552 24.2717 32.1466C25.0539 32.582 25.8789 33.0927 26.4679 33.6381C26.7625 33.9104 26.9959 34.1875 27.1464 34.4527C27.2976 34.7196 27.3673 34.9642 27.3689 35.2159C27.3672 35.5146 27.307 35.714 27.2294 35.8692Z" fill="black"/>
</svg>
