<svg width="25" height="43" viewBox="0 0 25 43" fill="none" xmlns="http://www.w3.org/2000/svg">
<path d="M23.7224 34.5741C23.5197 34.1649 23.2609 33.8048 22.9788 33.4669C22.5542 32.9621 22.0751 32.5057 21.6004 32.0046C21.1258 31.5035 20.6555 30.9612 20.2352 30.2925C18.9772 28.2902 18.288 26.2724 17.9177 24.7595C17.7325 24.0027 17.6267 23.3722 17.5679 22.9351C17.5583 22.8668 17.5502 22.8035 17.5436 22.7447H19.3902C19.5489 22.7447 19.7091 22.7095 19.8487 22.6418C20.0603 22.5418 20.2235 22.375 20.3263 22.1899C20.4306 22.0032 20.4806 21.7953 20.4806 21.5852C20.4806 21.342 20.413 21.0929 20.2778 20.8658C20.1441 20.6387 19.9413 20.4375 19.684 20.2846C19.3137 20.0656 18.9639 19.8261 18.7362 19.588C18.6215 19.4683 18.5392 19.3529 18.4863 19.2471C18.4349 19.1384 18.4114 19.0429 18.4114 18.9349H18.4437C18.4423 18.4624 18.5187 17.9311 18.6539 17.3793C18.8566 16.5519 19.1932 15.6775 19.5797 14.8722C19.9662 14.0669 20.4056 13.3262 20.8054 12.7626C21.0067 12.4753 21.161 12.2049 21.2683 11.9418C21.3756 11.6795 21.4373 11.4231 21.4373 11.1659C21.4373 10.9807 21.4035 10.7949 21.3286 10.6244C21.2728 10.4958 21.1934 10.3782 21.0993 10.279C20.9582 10.1291 20.7848 10.0226 20.6041 9.95199C20.4233 9.88077 20.2337 9.8439 20.0383 9.83004C19.9634 9.82492 19.8928 9.82198 19.8223 9.82198C19.4857 9.82047 19.1918 9.88741 18.9537 9.9881C18.773 10.0623 18.6274 10.1512 18.5055 10.2298C18.4996 10.2328 18.4952 10.2358 18.4909 10.2387C18.3453 8.825 17.7098 7.5523 16.7583 6.60152C15.6707 5.51241 14.1606 4.83784 12.5 4.83784C10.8394 4.83784 9.32934 5.51241 8.24183 6.60135C7.29028 7.55222 6.65469 8.82483 6.50923 10.2392C6.40341 10.1709 6.28214 10.0959 6.13374 10.0261C6.00658 9.96669 5.86331 9.91378 5.70239 9.87775C5.54215 9.84172 5.36662 9.8219 5.17707 9.8219C5.10795 9.8219 5.03597 9.82408 4.96106 9.82996H4.96173C4.78763 9.84247 4.61866 9.8733 4.45548 9.92915C4.33429 9.97181 4.21511 10.0284 4.10501 10.1041C3.94116 10.2157 3.79561 10.3738 3.70155 10.5611C3.6053 10.7477 3.56121 10.9579 3.56197 11.1658C3.56272 11.423 3.62445 11.6795 3.73094 11.9417C3.83828 12.2048 3.99247 12.4752 4.19538 12.7625C4.72809 13.5142 5.32917 14.5781 5.78688 15.6965C6.01616 16.255 6.21083 16.8274 6.34605 17.3792C6.48126 17.931 6.55693 18.4623 6.55693 18.9348H6.58918C6.58843 19.0428 6.56499 19.1383 6.51351 19.247C6.43709 19.4058 6.28424 19.5879 6.07192 19.7658C5.86037 19.9451 5.59363 20.1207 5.31581 20.2845C5.05941 20.4374 4.85659 20.6387 4.72137 20.8658C4.58767 21.0928 4.51998 21.3419 4.51998 21.5851C4.51998 21.8651 4.60673 22.1428 4.79553 22.3677C4.88959 22.4785 5.01011 22.5755 5.1512 22.6417C5.29154 22.7093 5.45094 22.7447 5.61043 22.7447H7.45624C7.40257 23.184 7.29314 23.9019 7.07268 24.794C6.70013 26.3032 6.01389 28.3055 4.76471 30.2924C4.3914 30.8862 3.97777 31.3814 3.55667 31.8355C3.24148 32.1764 2.92259 32.4938 2.61471 32.8142C2.15397 33.2947 1.71456 33.7826 1.38324 34.3734C1.21788 34.668 1.08048 34.9892 0.987173 35.3389C0.892355 35.6887 0.842384 36.0679 0.842384 36.4756C0.842384 36.5711 0.844652 36.6704 0.850531 36.7717C0.873291 37.1848 0.995991 37.5432 1.17085 37.8269C1.30169 38.0392 1.45891 38.2097 1.6184 38.3442C1.71683 38.428 1.81534 38.4949 1.91083 38.5529L1.09299 39.9299V43H23.9061V39.9308L23.0904 38.5545C23.2359 38.4656 23.3902 38.3495 23.5387 38.1981C23.6944 38.0387 23.8399 37.8403 23.9502 37.6C24.0604 37.3597 24.1324 37.0805 24.1486 36.7704C24.1544 36.6704 24.1575 36.572 24.1575 36.4758C24.159 35.7498 23.9944 35.1179 23.7224 34.5741ZM9.05824 7.41852C9.94075 6.53601 11.1546 5.99297 12.5 5.99229C13.8454 5.99305 15.0593 6.53609 15.9418 7.41852C16.7655 8.24291 17.2931 9.35536 17.3592 10.5958C17.1843 10.5847 17.0624 10.5547 16.9565 10.515C16.8573 10.479 16.7683 10.4312 16.6626 10.368C16.584 10.3209 16.4966 10.2651 16.3929 10.2049C16.2401 10.1137 16.0491 10.0138 15.8161 9.94258C15.5832 9.86985 15.3121 9.82803 14.9991 9.82803C14.628 9.82727 14.315 9.889 14.0563 9.98458C13.8623 10.0566 13.7029 10.1455 13.5706 10.2241C13.4714 10.2844 13.3862 10.3388 13.3091 10.3843C13.1923 10.4526 13.0953 10.5012 12.9769 10.5372C12.8587 10.574 12.7139 10.6003 12.5001 10.6003C12.2459 10.5997 12.0907 10.5636 11.9586 10.5152C11.86 10.4792 11.7704 10.4314 11.6654 10.3681C11.586 10.3211 11.4986 10.2653 11.3957 10.205C11.2422 10.1139 11.0519 10.014 10.8189 9.94275C10.5852 9.87002 10.3141 9.8282 10.001 9.8282C9.62992 9.82744 9.31691 9.88917 9.05832 9.98474C8.86499 10.0567 8.70483 10.1457 8.57331 10.2243C8.47337 10.2846 8.38813 10.339 8.31103 10.3845C8.19496 10.4528 8.09796 10.5013 7.97963 10.5374C7.8885 10.5653 7.78126 10.5874 7.64016 10.5961C7.70626 9.35536 8.23452 8.24291 9.05824 7.41852ZM6.46077 14.3726C6.04564 13.5085 5.58053 12.7208 5.13819 12.0962C4.97433 11.864 4.86482 11.6642 4.80023 11.5061C4.73556 11.3467 4.7165 11.2313 4.7165 11.166C4.71717 11.119 4.72532 11.0984 4.72826 11.0888L4.73926 11.0727C4.74741 11.0645 4.76714 11.047 4.8172 11.0263C4.86565 11.0072 4.94275 10.9882 5.04496 10.9816H5.04639C5.09275 10.9786 5.13609 10.9763 5.17724 10.9763C5.37561 10.9779 5.491 11.0087 5.60337 11.0542C5.68711 11.0887 5.77017 11.1365 5.87305 11.2019C6.02514 11.2989 6.21839 11.4386 6.48874 11.5568C6.75841 11.6759 7.09863 11.7567 7.50276 11.7545C7.87314 11.7561 8.1869 11.695 8.44473 11.598C8.63882 11.5268 8.79822 11.4378 8.93041 11.3591C9.03044 11.2996 9.11493 11.2453 9.19203 11.1997C9.30885 11.1314 9.40509 11.0828 9.5241 11.0454C9.64235 11.0094 9.78714 10.9837 10.001 10.9829C10.2552 10.9837 10.4102 11.0196 10.5425 11.0674C10.641 11.1042 10.7299 11.1519 10.8357 11.2144C10.915 11.2621 11.0017 11.3187 11.1054 11.379C11.259 11.4693 11.4492 11.5693 11.6822 11.6405C11.9151 11.7125 12.1869 11.7551 12.5 11.7544C12.8704 11.7559 13.1841 11.6948 13.4427 11.5978C13.6361 11.5266 13.7961 11.4376 13.9277 11.359C14.0277 11.2994 14.1128 11.2451 14.1893 11.1996C14.3061 11.1312 14.4031 11.0827 14.5213 11.0452C14.6396 11.0093 14.7851 10.9835 14.999 10.9827C15.2525 10.9835 15.4083 11.0194 15.5398 11.0672C15.6391 11.104 15.7287 11.1517 15.8338 11.2142C15.9123 11.262 16.0005 11.3185 16.1027 11.3788C16.2562 11.4692 16.4465 11.5691 16.6795 11.6403C16.9131 11.7123 17.1842 11.755 17.4966 11.7542C17.8559 11.7557 18.1645 11.6932 18.4187 11.5948C18.6084 11.5212 18.7655 11.4324 18.8963 11.3508C19.0933 11.2266 19.2299 11.1289 19.3548 11.0723C19.418 11.0422 19.4798 11.0209 19.5533 11.004C19.6252 10.9879 19.7105 10.9761 19.8222 10.9761C19.8633 10.9761 19.9074 10.9784 19.9545 10.9813C20.0456 10.9879 20.1161 11.0026 20.1661 11.0202C20.2028 11.0335 20.2262 11.0467 20.241 11.0562C20.2631 11.0724 20.2645 11.0768 20.2689 11.0849C20.2733 11.0938 20.2822 11.1121 20.2836 11.1657C20.2836 11.2311 20.2644 11.3465 20.1999 11.5059C20.1352 11.6646 20.0264 11.8645 19.8619 12.0959C19.2726 12.9292 18.6393 14.0519 18.144 15.2578C17.8971 15.861 17.6839 16.4841 17.5319 17.1044C17.429 17.5261 17.3541 17.945 17.3159 18.3571H7.68341C7.6452 17.945 7.5702 17.5261 7.46741 17.1044C7.23889 16.1742 6.87591 15.236 6.46077 14.3726ZM5.67527 21.5897C5.67527 21.5882 5.67451 21.5875 5.67451 21.5875C5.67451 21.5537 5.68333 21.5089 5.71491 21.456C5.74648 21.4031 5.80091 21.3413 5.90521 21.2781C6.31237 21.0357 6.73993 20.7565 7.09628 20.3883C7.2734 20.2039 7.43281 19.9945 7.55181 19.7512C7.58851 19.6756 7.6195 19.5947 7.64739 19.5117H17.3525C17.3796 19.5947 17.4112 19.6755 17.448 19.7512C17.6266 20.1172 17.894 20.4037 18.1836 20.6477C18.4731 20.8931 18.789 21.0966 19.0946 21.2781C19.199 21.3413 19.2534 21.4031 19.2843 21.456C19.3166 21.5089 19.3254 21.5537 19.3254 21.5853C19.3254 21.5853 19.3239 21.5882 19.3239 21.5897H5.67527ZM22.7526 41.8449H2.2482V40.2475L3.06822 38.8654H21.9325L22.7526 40.2475V41.8449ZM22.9965 36.7057C22.9818 36.9365 22.923 37.0937 22.8451 37.2215C22.7863 37.3178 22.7143 37.3964 22.635 37.4626C22.5189 37.564 22.3837 37.6337 22.2823 37.6742C22.2412 37.6919 22.2088 37.7021 22.1824 37.7109H2.81686C2.79049 37.7021 2.75521 37.6897 2.71398 37.6727C2.58321 37.6198 2.40315 37.5199 2.26802 37.3707C2.19898 37.2965 2.14011 37.2098 2.09308 37.104C2.04756 36.9981 2.0138 36.8711 2.00422 36.7057L2.00347 36.7035C1.99902 36.6264 1.99683 36.5507 1.99683 36.4758C1.99834 35.9166 2.11366 35.489 2.31211 35.0878C2.46051 34.7865 2.66107 34.5014 2.90504 34.2097C3.27247 33.7725 3.73833 33.3243 4.23796 32.7982C4.73548 32.2721 5.2645 31.6666 5.74279 30.9068C7.08603 28.7685 7.81124 26.6362 8.20361 25.0336C8.43146 24.0997 8.54677 23.348 8.60338 22.8755H16.3958C16.4531 23.3479 16.5677 24.0997 16.7963 25.0336C17.1886 26.6362 17.9146 28.7685 19.2578 30.9068C19.6826 31.5828 20.1469 32.1361 20.5952 32.6204C20.9316 32.9834 21.2579 33.3074 21.5519 33.6145C21.9957 34.0752 22.3616 34.4955 22.61 34.9386C22.7334 35.1598 22.8304 35.3883 22.898 35.6382C22.9656 35.8887 23.0023 36.1613 23.0023 36.4758C23.0023 36.5508 23.0008 36.6272 22.9965 36.7057Z" fill="black"/>
<path d="M12.5 4.1736C13.0746 4.1736 13.5999 3.93845 13.9754 3.56228C14.3524 3.18603 14.5868 2.66071 14.5861 2.08609C14.5868 1.51222 14.3516 0.986902 13.9754 0.610652C13.5999 0.234486 13.0746 -0.000670439 12.5 1.4359e-06C11.9254 -0.000670439 11.4 0.234486 11.0246 0.610652C10.6476 0.986146 10.4132 1.51147 10.4132 2.08609C10.4132 2.66071 10.6476 3.18603 11.0246 3.56228C11.4001 3.93853 11.9254 4.1736 12.5 4.1736ZM11.8409 1.42698C12.0114 1.258 12.2407 1.15437 12.5 1.15437C12.7593 1.15437 12.9886 1.258 13.1591 1.42698C13.3288 1.59747 13.4317 1.82675 13.4317 2.08609C13.4317 2.34543 13.3288 2.57471 13.1591 2.7452C12.9886 2.91493 12.7593 3.01781 12.5 3.01857C12.2407 3.01781 12.0114 2.91493 11.8409 2.7452C11.6712 2.57471 11.5683 2.34543 11.5675 2.08609C11.5683 1.82675 11.6712 1.59747 11.8409 1.42698Z" fill="black"/>
</svg>
