<svg width="33" height="43" viewBox="0 0 33 43" fill="none" xmlns="http://www.w3.org/2000/svg">
<path d="M3.46621 17.9257C3.04512 17.9257 2.70364 18.2672 2.70364 18.6883C2.70364 19.1094 3.04512 19.45 3.46621 19.45C3.8874 19.45 4.22879 19.1094 4.22879 18.6883C4.22879 18.2672 3.8874 17.9257 3.46621 17.9257Z" fill="white"/>
<path d="M32.7454 36.634C32.8703 36.3446 32.9441 36.0048 32.9433 35.634C32.9441 35.2733 32.8813 34.936 32.7663 34.6357C32.6666 34.3731 32.5298 34.139 32.3729 33.936C32.0977 33.5795 31.7672 33.3135 31.4459 33.0929C31.2042 32.9268 30.9651 32.7866 30.7495 32.6574C30.4248 32.4662 30.1513 32.2942 30.007 32.1558C29.9349 32.0886 29.8954 32.0342 29.8779 32.0006C29.8712 31.988 29.8686 31.9796 29.8661 31.9704L29.8518 31.842V31.8404C29.846 31.7791 29.7151 30.5199 29.7151 28.675C29.7151 26.5734 29.8863 23.7093 30.5843 21.0045C31.0851 19.0607 31.3083 17.2561 31.3083 15.595C31.3091 13.3845 30.9106 11.4271 30.2478 9.74171C29.2537 7.21143 27.6665 5.29457 25.9491 4.00751C25.09 3.36318 24.1982 2.87666 23.3241 2.54694C22.4499 2.21806 21.5933 2.04606 20.7963 2.04606C20.7375 2.04606 20.6797 2.04866 20.6218 2.0511C20.4884 1.86902 20.3021 1.63495 20.0638 1.38586C19.8122 1.1224 19.5043 0.842981 19.1376 0.598083C18.7702 0.353016 18.3423 0.142552 17.8549 0.0334559C17.7525 0.0107801 17.6493 -0.000137882 17.5486 -0.000137882C17.3691 -0.000977725 17.198 0.0342117 17.0427 0.0904813C16.7499 0.197813 16.5134 0.371493 16.3052 0.569528C15.9429 0.920163 15.6518 1.35806 15.39 1.82787C14.9999 2.53098 14.6878 3.30607 14.4663 3.91353C14.3555 4.2189 14.2683 4.4806 14.2079 4.66687C13.5502 4.98904 12.9092 5.4161 12.2868 5.89674C11.218 6.72231 10.2061 7.70887 9.31354 8.61405C8.86884 9.06623 8.45363 9.49917 8.08199 9.88003C7.70952 10.2584 7.37888 10.5863 7.11214 10.823L7.09871 10.8356L7.08527 10.849C7.08527 10.849 7.00481 10.9287 6.86221 11.0704C6.36124 11.5663 5.0987 12.8146 3.87135 14.0143C3.25726 14.615 2.65241 15.2031 2.1574 15.6779C1.91074 15.9145 1.69095 16.1233 1.51223 16.2903C1.33435 16.4563 1.19427 16.5831 1.12213 16.6443C0.770568 16.9404 0.501397 17.2752 0.321839 17.6342C0.14228 17.9942 0.0558602 18.3776 0.0567001 18.7492C0.0567001 19.1854 0.171675 19.6016 0.362907 19.9724C0.650722 20.5295 1.10373 20.9925 1.64736 21.3248C2.19267 21.6562 2.83541 21.8601 3.51492 21.8601C3.63821 21.8601 3.76318 21.8517 3.8874 21.8374C3.91755 22.0043 3.96962 22.1646 4.04176 22.3139C4.21292 22.6646 4.48133 22.9607 4.82029 23.1788C5.15917 23.3961 5.57372 23.5329 6.02497 23.532C6.42347 23.5328 6.84549 23.4229 7.24148 23.1922C7.81358 22.8591 8.34386 22.4631 8.95703 22.1418C9.57205 21.8205 10.2583 21.5655 11.1577 21.4993C11.7634 21.4556 12.3607 21.3767 12.9336 21.2676C12.9177 21.5209 12.875 21.7635 12.8036 22.0068C12.6501 22.5378 12.364 23.0764 11.9957 23.6721C11.4462 24.5664 10.7179 25.5791 10.1148 26.8937C9.51158 28.2066 9.04437 29.8241 8.99986 31.8996V31.9173C8.99986 31.9374 8.99734 31.95 8.99314 31.9635C8.98558 31.9887 8.96795 32.0289 8.91092 32.0935C8.86061 32.1488 8.78259 32.2176 8.67938 32.294C8.49822 32.4266 8.24476 32.575 7.96467 32.7428C7.54349 32.9963 7.05352 33.2941 6.63914 33.7505C6.43279 33.9778 6.24727 34.2497 6.11643 34.5677C5.98549 34.8847 5.91259 35.2454 5.91259 35.6339C5.91092 36.1297 6.04344 36.566 6.24988 36.9091C6.40424 37.1658 6.59388 37.3706 6.78679 37.53C6.91008 37.6315 7.03337 37.7129 7.15246 37.7833L6.19864 39.3899V42.9999H32.658V39.39L31.705 37.7851C31.8854 37.6786 32.0774 37.5394 32.2603 37.3556C32.4466 37.166 32.6211 36.926 32.7454 36.634ZM10.9898 28.3419C11.5184 26.857 12.2919 25.7462 12.9815 24.6573C13.3255 24.1136 13.6492 23.5734 13.8942 22.9878C14.1393 22.4048 14.3003 21.7696 14.2994 21.0767C14.2994 21.0288 14.2969 20.9809 14.2952 20.9341C14.4202 20.8954 14.5436 20.8544 14.6644 20.8124C15.1795 20.632 15.6467 20.4197 16.0503 20.1681C16.4539 19.9155 16.7986 19.6261 17.0487 19.2554L15.9178 18.5011C15.8238 18.6463 15.6266 18.8342 15.3322 19.0154C14.8935 19.2906 14.2517 19.5507 13.51 19.7478C12.7659 19.944 11.9202 20.0834 11.0603 20.1446C9.9462 20.2226 9.05017 20.5574 8.32538 20.9399C7.59976 21.3225 7.03253 21.7469 6.56112 22.0171C6.35553 22.1355 6.18109 22.1732 6.02497 22.1748C5.90756 22.1748 5.79762 22.1506 5.69608 22.1103C5.54516 22.049 5.41507 21.9434 5.33201 21.8318C5.24643 21.7193 5.2162 21.6077 5.21704 21.5431C5.21788 21.4954 5.22636 21.4676 5.25147 21.4282L5.1994 21.3938C5.29002 21.3401 5.3798 21.2831 5.46622 21.2193C5.65249 21.0834 5.94946 20.8887 6.27994 20.6806C6.77747 20.3678 7.35713 20.0196 7.81022 19.7519C8.03664 19.6168 8.23216 19.5027 8.37057 19.4222C8.43935 19.3819 8.49469 19.3499 8.53165 19.3282C8.56944 19.3064 8.5896 19.2947 8.5896 19.2947L7.91092 18.1184C7.90831 18.1201 7.32034 18.459 6.62394 18.8768C6.27574 19.0866 5.90075 19.3138 5.55675 19.5312C5.212 19.7477 4.90075 19.9507 4.66753 20.1202C4.29086 20.3929 3.9057 20.501 3.51484 20.5027C3.24643 20.5027 2.97532 20.4473 2.72119 20.3475C2.33864 20.1973 1.9964 19.9424 1.76561 19.6512C1.64988 19.5052 1.5601 19.3517 1.50224 19.199C1.44429 19.0463 1.41498 18.8962 1.41422 18.7494C1.41582 18.5816 1.45109 18.4171 1.53835 18.2409C1.62561 18.0656 1.76822 17.876 1.99808 17.6822C2.1223 17.5765 2.29505 17.418 2.52164 17.2073C3.30354 16.4724 4.68021 15.1267 5.86565 13.9614C6.98902 12.8574 7.9362 11.9177 8.0327 11.823C8.44464 11.4547 8.91436 10.9723 9.44296 10.4295C10.2432 9.60398 11.1712 8.64085 12.1393 7.78429C13.1075 6.92605 14.1201 6.17859 15.0404 5.77757L15.3323 5.65083L15.4204 5.34547L15.4211 5.34295C15.4347 5.29348 15.7618 4.1953 16.245 3.14911C16.4841 2.62731 16.7669 2.11803 17.037 1.78251C17.1695 1.61303 17.2996 1.4905 17.3943 1.42592C17.4431 1.394 17.4799 1.37645 17.505 1.36721C17.5302 1.35881 17.542 1.35797 17.5487 1.35797L17.5588 1.35881H17.5606C17.8441 1.4218 18.1235 1.55349 18.3844 1.72708C18.7753 1.98727 19.1159 2.3395 19.3492 2.62488C19.4658 2.76748 19.5564 2.89245 19.616 2.97887C19.6461 3.02246 19.668 3.05597 19.6814 3.07781L19.6965 3.10124L19.6982 3.1046L19.9246 3.48219L20.3608 3.42936C20.4985 3.41341 20.6445 3.40417 20.7963 3.40417C21.5942 3.40249 22.5833 3.64327 23.6009 4.14659C25.1303 4.90085 26.7217 6.23646 27.9248 8.14164C29.1262 10.0478 29.9493 12.5226 29.9509 15.5948C29.9509 17.1334 29.742 18.8231 29.2688 20.6646C28.5289 23.5398 28.3577 26.4995 28.3577 28.6748C28.3577 29.7629 28.4013 30.6522 28.4399 31.2353H26.5179C26.226 29.9794 26.1077 28.7445 26.1077 27.5255C26.1069 25.4156 26.4593 23.3535 26.8536 21.3484C27.2462 19.3424 27.6824 17.3952 27.8192 15.4967V15.4959C27.8334 15.2895 27.841 15.0798 27.841 14.8659C27.841 13.8667 27.6824 12.7861 27.3494 11.7165C26.8494 10.1141 25.9576 8.52763 24.59 7.32632C23.9063 6.72651 23.1027 6.22562 22.1815 5.87751C21.262 5.52931 20.225 5.33388 19.0798 5.33472V6.69291C20.4029 6.69375 21.5035 6.98904 22.4297 7.47649C23.1252 7.84316 23.7234 8.31969 24.2335 8.87583C24.9986 9.70887 25.564 10.7198 25.9349 11.7693C26.3074 12.8181 26.4836 13.9044 26.4827 14.8659C26.4827 15.0488 26.476 15.2266 26.4642 15.4002V15.3995C26.3401 17.1553 25.9198 19.0606 25.5204 21.0867C25.1228 23.1135 24.7495 25.2638 24.7486 27.5256C24.7486 28.7328 24.8576 29.9711 25.1261 31.2354H10.3943C10.4781 30.1113 10.6962 29.1667 10.9898 28.3419ZM31.299 41.6417H7.55684V39.7633L8.55105 38.0888H30.3057L31.2991 39.7633V41.6417H31.299ZM31.4399 36.212C31.3771 36.3177 31.2957 36.4067 31.2033 36.4838C31.0641 36.6005 30.8988 36.6827 30.7713 36.7322C30.7528 36.7397 30.7369 36.7448 30.7209 36.7507V36.7306H8.15758V36.7591C8.12903 36.749 8.09879 36.7381 8.0636 36.7247C7.89916 36.6585 7.68357 36.5384 7.53341 36.3706C7.45791 36.286 7.39576 36.1919 7.34889 36.0762C7.30354 35.9605 7.27163 35.8212 7.27079 35.6341C7.27163 35.4261 7.30522 35.2625 7.35981 35.1173C7.4076 34.9898 7.47302 34.8765 7.5586 34.7649C7.70793 34.5711 7.92192 34.3891 8.17858 34.2129C8.37065 34.0812 8.5838 33.9545 8.80191 33.8244C9.12995 33.6272 9.46967 33.4309 9.77512 33.1491C9.92612 33.009 10.0704 32.8412 10.1811 32.6322C10.1878 32.6196 10.192 32.6063 10.1979 32.5936H28.6588C28.7352 32.748 28.8308 32.8839 28.9348 33.0006C29.0715 33.1524 29.2209 33.2774 29.3744 33.3899C29.6428 33.5853 29.9248 33.7464 30.1949 33.9083C30.5993 34.1491 30.9701 34.3924 31.2092 34.6609C31.33 34.7951 31.4207 34.931 31.4835 35.0837C31.5465 35.2372 31.5842 35.4108 31.585 35.634C31.5833 35.8991 31.5238 36.0694 31.4399 36.212Z" fill="white"/>
</svg>
