<svg width="29" height="43" viewBox="0 0 29 43" fill="none" xmlns="http://www.w3.org/2000/svg">
<path d="M28.6155 36.2531C28.7473 35.9451 28.8251 35.5861 28.8251 35.1931C28.8266 34.4784 28.6552 33.8456 28.3836 33.312C28.1804 32.911 27.9247 32.564 27.6515 32.2568C27.2419 31.7955 26.7956 31.4183 26.3938 31.0681C25.9937 30.7196 25.6395 30.3964 25.4045 30.0859L25.3997 30.0788L25.395 30.0749C24.512 28.9696 23.791 27.3776 23.2399 25.568C22.4094 22.8532 21.9504 19.6587 21.7059 16.8757C21.4598 14.0911 21.4264 11.7137 21.4264 10.6092C21.4264 10.5059 21.4264 10.4138 21.4264 10.3344L25.3092 7.90704V0H19.2349V3.68507H17.4007V0H11.5979V3.68507H9.7653V0H3.68936V7.90696L7.57221 10.3343C7.57381 10.4137 7.57381 10.505 7.57381 10.6083C7.57381 12.0796 7.51183 15.8164 6.97189 19.7619C6.70197 21.7336 6.31287 23.7583 5.76025 25.5671C5.20923 27.3776 4.48814 28.9696 3.6037 30.0749L3.60042 30.0781L3.59572 30.086C3.38442 30.3624 3.08434 30.6482 2.73656 30.9524C2.21888 31.4121 1.59798 31.9083 1.08182 32.5785C0.824572 32.9128 0.595798 33.2948 0.432281 33.7315C0.268679 34.1674 0.17344 34.6573 0.175036 35.1933C0.17344 35.7174 0.31319 36.1811 0.532305 36.544C0.695907 36.8172 0.897554 37.0331 1.1008 37.2022C1.23106 37.311 1.36283 37.3967 1.4883 37.4713L0.478304 39.1738V43H28.5219V39.1736L27.512 37.4727C27.7042 37.3599 27.9074 37.2123 28.1012 37.0169C28.2979 36.8153 28.4837 36.5613 28.6155 36.2531ZM5.12961 7.10894V1.43958H8.3248V5.12464H13.0382V1.43958H15.9618V5.12464H20.6736V1.43958H23.8704V7.10894L20.3687 9.29732H8.63126L5.12961 7.10894ZM27.0814 41.5604H1.91687V39.569L2.97138 37.7936H26.0285L27.0814 39.569V41.5604ZM27.2307 35.8053C27.164 35.9173 27.0783 36.0117 26.9798 36.0944C26.8337 36.2167 26.6574 36.3048 26.5224 36.3564C26.5033 36.3644 26.4858 36.3699 26.4684 36.3763V36.3548H2.55373V36.385C2.52358 36.3746 2.49191 36.3628 2.4553 36.3484C2.28061 36.2786 2.05192 36.1507 1.8931 35.9729C1.81214 35.8839 1.74546 35.7847 1.69616 35.6616C1.64863 35.5385 1.6152 35.3908 1.6136 35.1931C1.61512 34.7 1.7232 34.3165 1.8994 33.9632C2.03445 33.6988 2.21225 33.4519 2.42506 33.212C2.74277 32.8515 3.14128 32.5101 3.55104 32.1527C3.95593 31.7978 4.37677 31.4286 4.72934 30.9713V30.9721C4.73102 30.9697 4.73253 30.9681 4.73413 30.9657C4.73564 30.9633 4.73732 30.9617 4.73883 30.9601C5.79015 29.6333 6.55239 27.8967 7.13684 25.9879C8.01347 23.1166 8.47555 19.8453 8.72809 17.001C8.96946 14.2576 9.0107 11.9176 9.01229 10.7369H19.9859C19.9906 12.3273 20.062 16.018 20.6004 19.958C20.8783 21.9827 21.2785 24.0742 21.8629 25.9879C22.4473 27.8967 23.2095 29.6333 24.2608 30.9601C24.2625 30.9625 24.264 30.964 24.2656 30.9665C24.2671 30.9681 24.2671 30.9697 24.2688 30.9721L24.2703 30.9713C24.5832 31.377 24.9501 31.7137 25.3106 32.0329C25.8601 32.5141 26.4 32.9618 26.7747 33.455C26.9637 33.7003 27.1146 33.9552 27.2178 34.2347C27.3226 34.515 27.3845 34.8231 27.3845 35.1931C27.3831 35.4734 27.3196 35.6545 27.2307 35.8053Z" fill="white"/>
</svg>
